<svg xmlns:xlink="http://www.w3.org/1999/xlink" xmlns="http://www.w3.org/2000/svg" style="width:100%;height:100%" viewBox="0 0 250 167" preserveAspectRatio="none" width="250" height="167"><defs><svg width="250" height="167" viewBox="0 0 250 167" fill="none" id="svg196061102_2172">
<path d="M55.8798 138.994C53.4539 138.495 51.3313 138.058 49.2087 137.621C40.3791 135.678 31.9305 132.483 24.6807 126.811C14.7797 119.265 11.1046 108.757 14.282 96.5569C15.8837 90.2379 19.0115 84.8028 22.9513 79.7248C30.769 69.8727 40.5079 62.3788 51.0328 55.68C66.4731 45.9402 82.9608 38.5056 100.219 32.8758C118.911 26.718 138.008 22.6065 157.644 20.5055C171.816 18.863 186.177 18.4626 200.455 20.9577C206.011 21.9112 211.746 23.5348 216.957 25.8736C230.529 32.1493 236.777 45.8461 233.105 60.4773C231.318 67.708 227.773 74.2604 223.514 80.2858C213.325 94.6522 200.053 105.535 185.343 114.792C165.121 127.536 143.421 136.368 120.216 141.724C104.835 145.27 89.2032 147.879 73.3516 147.529C68.6177 147.505 63.9715 146.738 59.2634 146.276C58.0864 146.16 56.9712 145.741 55.8561 145.322C52.9474 144.09 52.6501 142.446 54.8564 139.987C55.0519 139.647 55.417 139.406 55.8798 138.994ZM124.569 133.375C124.605 133.509 124.64 133.643 124.676 133.777C125.478 133.562 126.45 133.445 127.252 133.23C145.794 128.118 163.387 120.531 179.861 110.371C194.144 101.659 207.256 91.2503 217.189 77.5275C221.154 72.0116 224.611 66.201 226.408 59.5423C229.683 47.1723 224.554 36.0487 212.92 31.1214C208.557 29.2737 203.936 28.0696 199.29 27.3034C186.662 25.0844 174.012 25.4572 161.409 26.5359C143.207 28.1089 125.482 31.9963 108.081 37.09C87.6411 43.1414 68.1869 51.8018 50.4685 63.7322C42.1081 69.4202 34.3281 75.6708 27.9866 83.5472C24.1446 88.4554 21.1504 93.8546 19.9497 100.066C18.6613 107.02 20.0819 113.391 25.1731 118.491C27.1203 120.411 29.4684 122.224 31.7087 123.635C39.1081 128.261 47.2075 130.688 55.8575 131.961C66.5943 133.538 77.311 133.97 88.1414 133.223C102.529 132.385 116.655 130.036 129.667 123.533C130.3 123.22 131.163 122.701 131.77 122.826C132.849 123.111 134.232 123.459 134.714 124.191C135.197 124.924 134.754 126.479 134.266 127.328C133.643 128.214 132.512 128.804 131.515 129.359C129.227 130.977 126.964 132.158 124.569 133.375ZM80.6487 140.546C73.5249 140.156 66.5706 139.865 59.4467 139.475C66.5028 141.75 73.483 141.604 80.6487 140.546Z" fill="#FFFFFF"></path>
</svg></defs><use href="#svg196061102_2172"></use></svg>