<svg width="2123" height="1868" viewBox="0 0 2123 1868" fill="none" xmlns="http://www.w3.org/2000/svg">
<path fill-rule="evenodd" clip-rule="evenodd" d="M305.74 1830.65V422.95H0.360107V459.06H251.03V459.45H269.24V1867.15H712.61V1227.7V997.68L851.5 1180.98L1371.3 1867.15H1803.49V459.45H1834V459.06H2122.05V422.95H1766.99V1830.65H1389.45L880.59 1158.94L676.11 889.07V1830.65H305.74Z" fill="#818181"/>
<path fill-rule="evenodd" clip-rule="evenodd" d="M0.360107 357.06H714.59L1364.27 1214.59V357.06H2122.05V0.73999H0.360107V357.06ZM837.95 459.45L732.73 320.56H269.24H36.8601V37.24H269.24H518.12H692.32H1327.77H1466.66H1803.49H2085.55V320.56H1803.49H1466.66H1327.77V459.45V876.01V1105.97L837.95 459.45Z" fill="#818181"/>
</svg>
