<?xml version="1.0" encoding="UTF-8"?>
<!DOCTYPE svg PUBLIC "-//W3C//DTD SVG 1.1//EN" "http://www.w3.org/Graphics/SVG/1.1/DTD/svg11.dtd">
<!-- Creator: CorelDRAW 2021 (64-Bit) -->
<svg xmlns="http://www.w3.org/2000/svg" xml:space="preserve" width="2250px" height="1950px" version="1.1" style="shape-rendering:geometricPrecision; text-rendering:geometricPrecision; image-rendering:optimizeQuality; fill-rule:evenodd; clip-rule:evenodd"
viewBox="0 0 2250 1950"
 xmlns:xlink="http://www.w3.org/1999/xlink"
 xmlns:xodm="http://www.corel.com/coreldraw/odm/2003">
 <defs>
  <style type="text/css">
   <![CDATA[
    .fil0 {fill:black}
   ]]>
  </style>
 </defs>
 <g id="Layer_x0020_1">
  <metadata id="CorelCorpID_0Corel-Layer"/>
  <polygon class="fil0" points="374.74,1877.65 374.74,469.95 69.36,469.95 69.36,506.06 320.03,506.06 320.03,506.45 338.24,506.45 338.24,1914.15 781.61,1914.15 781.61,1274.7 781.61,1044.68 920.5,1227.98 1440.3,1914.15 1872.49,1914.15 1872.49,506.45 1903,506.45 1903,506.06 2191.05,506.06 2191.05,469.95 1835.99,469.95 1835.99,1877.65 1458.45,1877.65 949.59,1205.94 745.11,936.07 745.11,1877.65 "/>
  <path class="fil0" d="M69.36 404.06l714.23 0 649.68 857.53 0 -857.53 757.78 0 0 -356.32 -2121.69 0 0 356.32zm837.59 102.39l-105.22 -138.89 -463.49 0 -232.38 0 0 -283.32 232.38 0 248.88 0 174.2 0 635.45 0 138.89 0 336.83 0 282.06 0 0 283.32 -282.06 0 -336.83 0 -138.89 0 0 138.89 0 416.56 0 229.96 -489.82 -646.52z"/>
 </g>
</svg>
