<svg width="213" height="48" viewBox="0 0 213 48" fill="none" xmlns="http://www.w3.org/2000/svg">
<g clip-path="url(#clip0_47_2)">
<path d="M71.8089 15.2675C69.2325 15.2246 66.8268 16.0359 64.9372 18.4681L64.7233 15.7786H59.1407V36.8661H65.2393V25.981C65.2393 23.2486 67.172 20.7735 70.0487 20.8164C73.0117 20.8164 74.4284 22.4819 74.4284 25.7255V36.8679H80.6564V25.6844C80.6564 17.4888 76.577 15.2693 71.8089 15.2693V15.2675Z" fill="#2779A7"/>
<path d="M99.9391 15.2246C93.0243 15.2246 88.6877 19.7066 88.6877 26.1097C88.6877 32.8541 92.8967 37.3361 100.585 37.3361C103.763 37.3361 107.413 36.4408 109.689 34.2194L106.21 30.3772C104.707 31.6586 102.388 32.0428 100.712 32.0428C97.2332 32.0428 95.2573 30.3772 94.9571 28.3292H110.547C111.879 19.7066 107.154 15.2246 99.9391 15.2246ZM94.9571 23.8473C95.5576 21.7564 97.4472 20.475 99.9391 20.475C102.431 20.475 104.878 21.5419 105.007 23.8473H94.9571Z" fill="#2779A7"/>
<path d="M129.743 31.7872C128.584 31.7872 127.338 31.1903 127.338 28.9707V21.0308H132.749V15.909H127.381V10.017L121.196 10.6997V15.9072H117.417V21.029H121.196V28.969C121.196 35.5436 124.675 37.5487 129.27 37.3361C130.946 37.2503 132.19 36.9947 133.736 36.3978L132.32 31.2761C131.633 31.6174 130.473 31.789 129.743 31.789V31.7872Z" fill="#2779A7"/>
<path d="M151.131 34.0068C148.598 34.0068 147.782 32.427 147.782 29.9519V18.8094H154.396V15.8215H147.825V9.63104L144.303 10.0152V15.8215H140.051V18.8094H144.303V29.9519C144.303 34.6054 146.449 37.2521 151.002 37.1663C152.419 37.1234 153.708 36.7821 155.124 36.1423L154.094 33.2401C153.15 33.7101 152.075 34.0085 151.131 34.0085V34.0068Z" fill="#2779A7"/>
<path d="M180.635 19.6207C179.089 16.8883 175.953 15.4372 172.776 15.4372C166.721 15.3943 161.868 19.4921 161.868 26.3223C161.868 33.1525 166.635 37.3789 172.733 37.3789C175.653 37.3789 178.875 36.0136 180.55 33.1096L180.637 36.9518L180.723 36.866H184.116V15.7785H180.68L180.637 19.6207H180.635ZM172.906 34.1765C168.697 34.1765 165.304 31.1456 165.304 26.4509C165.304 21.7563 168.697 18.7665 172.906 18.7665L172.949 18.7236C183.127 18.7236 183.127 34.1765 172.906 34.1765Z" fill="#2779A7"/>
<path d="M204.47 26.0668L211.685 15.9073V15.7786H207.649L202.237 23.7615L196.741 15.7786H192.832V15.9073L199.961 26.0668L192.316 36.7821V36.8661H196.225L202.237 28.3292L208.208 36.8661H212.244V36.7821L204.47 26.0668Z" fill="#2779A7"/>
<path d="M45.1745 10.0188H39.4949V41.3302H30.0523L15.1493 22.3871L15.446 41.2086L16.3575 41.3302H5.41V10.0188H6.10352e-05V47.1239H45.1745V10.0188Z" fill="#2779A7"/>
<path d="M28.675 24.8068V7.32921H45.1745V0.876099H5.40994H0V7.32921H15.4189L28.675 24.8068Z" fill="#2779A7"/>
</g>
<defs>
<clipPath id="clip0_47_2">
<rect width="213" height="48" fill="white"/>
</clipPath>
</defs>
</svg>
