<svg width="63" height="67" viewBox="0 0 63 67" fill="none" xmlns="http://www.w3.org/2000/svg">
<g clip-path="url(#clip0_38_11)">
<path d="M26.5129 59.0258C26.5028 57.7875 26.838 56.5785 27.3826 55.6348C27.5868 55.281 27.6937 54.8446 27.8979 54.4907C28.1021 54.1368 28.3063 53.7829 28.5786 53.311C29.1378 52.4676 29.6969 51.6241 30.2707 50.8809C30.5576 50.5093 30.9272 50.1199 31.2822 49.6304C31.6518 49.241 32.0214 48.8517 32.391 48.4623L32.994 47.9196C33.0621 47.8016 33.2275 47.7661 33.2955 47.6482L33.5971 47.3768C34.064 47.07 34.4482 46.7809 34.9005 46.3738C36.7681 45.1465 38.7916 44.4026 40.8882 44.1598C42.9167 44.0351 44.9211 44.329 46.8331 45.1595C47.2905 45.3716 47.7478 45.5837 48.1225 45.8135L48.3998 45.9608C48.4971 46.0433 48.5945 46.1258 48.6918 46.2083L49.2611 46.6031C49.6503 46.9331 50.025 47.1629 50.4143 47.4929C50.8035 47.823 51.1101 48.1707 51.4994 48.5008C52.0979 49.096 52.7111 49.7916 53.2562 50.605C53.7574 51.1178 53.9813 51.4833 54.2052 51.8488C54.4291 52.2143 54.653 52.5798 54.7796 52.8627C55.3393 53.7764 55.6802 54.9438 55.7583 56.0641C55.71 56.9015 55.2577 57.3085 54.4161 57.3856C54.168 57.4387 53.988 57.374 53.8226 57.4094C53.5599 57.3624 53.3118 57.4155 53.0491 57.3685C52.5237 57.2744 51.9156 57.198 51.2929 57.0214C50.9475 56.9921 50.5874 56.8625 50.242 56.8332C49.882 56.7036 49.5366 56.6743 49.1085 56.6627L48.5004 56.5863C48.4177 56.6041 48.3204 56.5215 48.2377 56.5393C48.155 56.557 48.0577 56.4745 47.8923 56.51C47.4642 56.4984 47.0215 56.3865 46.6761 56.3572C44.8518 56.1281 42.974 56.1171 41.1255 56.3067C39.277 56.4962 37.375 56.9039 35.585 57.4944C35.1862 57.6833 34.7727 57.7719 34.3592 57.8606L34.0284 57.9315L33.7123 58.1026L33.1481 58.3269C32.7492 58.5158 32.4184 58.5867 32.0196 58.7756C31.6208 58.9645 31.3727 59.0176 31.0419 59.0886C30.395 59.3306 29.8307 59.5549 29.2665 59.7793C29.0184 59.8324 28.7703 59.8856 28.5223 59.9388C28.2742 59.992 28.1088 60.0275 27.8607 60.0806C27.1018 60.1399 26.6299 59.8276 26.5129 59.0258Z" fill="#2779A7"/>
<path d="M17.6836 48.2048C17.265 47.6743 17.3669 46.6188 17.809 44.9734C17.9159 44.537 18.0374 44.2009 18.2124 43.6465C18.402 43.1924 18.5915 42.7383 18.7665 42.1839C19.2818 41.0397 19.8117 39.9958 20.4243 38.9341C20.7647 38.3443 21.105 37.7545 21.4454 37.1647C21.7857 36.5749 22.2088 35.9674 22.6172 35.2596C23.4486 33.9443 24.3628 32.6112 25.3596 31.2605C27.4894 28.323 29.8285 25.6508 32.3622 23.1436C34.8132 20.6541 37.3908 18.4476 40.0803 16.4239C41.3157 15.5388 42.551 14.6538 43.6503 14.0046C44.1999 13.6801 44.7495 13.3555 45.2991 13.0309C45.8487 12.7064 46.3302 12.4998 46.8798 12.1752C47.7602 11.7797 48.7233 11.3665 49.701 11.0536C50.1145 10.9649 50.5133 10.7761 50.8441 10.7052C51.1749 10.6342 51.5883 10.5456 51.8364 10.4924C53.2861 10.4918 54.0888 10.7332 54.2739 11.4171C54.7267 12.7672 52.8011 15.3508 49.6402 18.8194C49.2706 19.2087 48.8329 19.716 48.3806 20.1231L46.9703 21.5625C45.9977 22.4946 44.9716 23.6449 43.9309 24.695C41.7814 26.9131 39.4665 29.1666 37.0155 31.6561C34.5645 34.1456 32.2642 36.4993 30.1001 38.6172C29.0594 39.6673 28.0187 40.7173 27.046 41.6494L25.6211 42.9886C25.1688 43.3957 24.7165 43.8027 24.2642 44.2098C20.9086 47.5134 18.5206 49.2658 17.6836 48.2048Z" fill="#2779A7"/>
<path d="M5.45411 36.8722C4.83138 36.6956 4.67556 36.2121 4.80664 35.357C4.86008 35.1388 4.91353 34.9206 4.96697 34.7024C5.02041 34.4842 5.14192 34.1481 5.19537 33.9299C5.37032 33.3755 5.71067 32.7857 6.03639 32.0957C6.1579 31.7595 6.36211 31.4056 6.56631 31.0517L7.08161 29.9076C7.4754 29.0996 7.86918 28.2916 8.33104 27.3656C9.17206 25.5314 10.0812 23.5792 10.8929 21.5445C11.7047 19.5098 12.4338 17.4928 13.0267 15.7118C13.3232 14.8213 13.6196 13.9308 13.848 13.1582L14.2806 12.0318C14.4022 11.6956 14.509 11.2592 14.6306 10.9231C14.8736 10.2507 15.1166 9.57848 15.3743 9.00639C15.5104 8.77047 15.6319 8.43431 15.768 8.19838C15.9042 7.96246 15.9576 7.74426 16.0938 7.50833C16.5022 6.80056 17.1198 6.35804 17.8641 6.19849C18.6376 6.23941 19.3042 6.71673 19.8347 7.42997C20.0293 7.59499 20.1559 7.87796 20.2678 8.06071C20.3944 8.34368 20.521 8.62666 20.6475 8.90964C20.9153 9.57583 21.1684 10.1417 21.3535 10.8257C21.412 11.2266 21.5532 11.6098 21.6117 12.0107C21.6702 12.4117 21.7287 12.8126 21.7872 13.2136C21.8361 14.1334 21.8851 15.0532 21.7686 16.0085C21.5796 18.2198 21.0305 20.3016 20.2187 22.3363C19.2562 24.5066 18.1137 26.6122 16.7619 28.4526C16.0373 29.3315 15.3954 30.1927 14.5736 30.9891C14.204 31.3785 13.8344 31.7678 13.4648 32.1571C13.0952 32.5465 12.711 32.8356 12.3414 33.2249C11.6556 33.7854 10.8872 34.3636 10.2014 34.9241C9.8999 35.1955 9.50106 35.3844 9.18491 35.5555C8.86876 35.7267 8.5526 35.8978 8.23645 36.069C7.38532 36.6649 6.393 36.8776 5.45411 36.8722Z" fill="#2779A7"/>
</g>
<defs>
<clipPath id="clip0_38_11">
<rect width="63" height="67" fill="white"/>
</clipPath>
</defs>
</svg>
