<svg width="60" height="70" viewBox="0 0 60 70" fill="none" xmlns="http://www.w3.org/2000/svg">
<path fill-rule="evenodd" clip-rule="evenodd" d="M7.83557 32.83L25.4856 38.83L29.6356 56.17C29.6338 56.2 29.6338 56.23 29.6356 56.26C29.6314 56.2966 29.6314 56.3335 29.6356 56.37C29.6762 56.4493 29.7266 56.5232 29.7855 56.59L29.8656 56.65C29.9119 56.6858 29.9622 56.716 30.0156 56.74H30.0955H30.2756H30.3656C30.4617 56.7541 30.5594 56.7541 30.6556 56.74C30.7745 56.7075 30.8864 56.6532 30.9856 56.58L31.0556 56.53L31.1156 56.48L42.6856 44.58L58.4056 49.94C58.579 49.9877 58.7621 49.9877 58.9356 49.94C59.0575 49.9073 59.1727 49.8532 59.2756 49.78C59.3984 49.6879 59.4984 49.5687 59.5678 49.4317C59.6371 49.2947 59.674 49.1436 59.6756 48.99L58.6256 0.800018C58.6183 0.614253 58.5595 0.43416 58.4556 0.279999C58.3991 0.206764 58.3316 0.142706 58.2556 0.0900269H58.2056C58.1291 0.0513279 58.0486 0.0211199 57.9656 0H57.6556H57.5655C57.4956 0.0127391 57.4282 0.0363665 57.3656 0.0700073H57.2656L7.60555 30.99C7.46724 31.0952 7.35874 31.2347 7.29074 31.3946C7.22274 31.5546 7.19758 31.7295 7.21777 31.9021C7.23796 32.0747 7.30281 32.239 7.40588 32.379C7.50895 32.5189 7.6467 32.6295 7.80557 32.7L7.83557 32.83ZM34.1156 50.95L38.0055 43.11L40.8155 44.06L34.1156 50.95ZM57.8656 47.85L42.8656 42.76L38.8656 41.39L56.9856 4.91L57.8656 47.85ZM30.8656 53.19L27.2855 38.19L53.5256 7.45001L30.8656 53.19ZM53.0556 5.08002L25.8455 36.96L10.3455 31.67L53.0556 5.08002ZM17.286 41.8003L10.9861 49.5203C10.837 49.7197 10.7677 49.9676 10.7918 50.2154C10.8158 50.4633 10.9315 50.6932 11.1161 50.8603C11.2319 50.9511 11.3664 51.0152 11.5098 51.048C11.6533 51.0809 11.8022 51.0816 11.9461 51.0503C12.1485 51.0004 12.3303 50.8885 12.4661 50.7303L18.786 43.0103C18.8668 42.8122 18.8819 42.5935 18.8291 42.3862C18.7764 42.1789 18.6586 41.994 18.493 41.8586C18.3274 41.7232 18.1228 41.6445 17.9091 41.634C17.6955 41.6235 17.4841 41.6818 17.3061 41.8003H17.286ZM13.288 38.4425C13.4015 38.4977 13.5026 38.5751 13.5855 38.6703C13.6699 38.7623 13.7352 38.8703 13.7775 38.9878C13.8198 39.1054 13.8382 39.2302 13.8317 39.355C13.8252 39.4797 13.7938 39.6019 13.7395 39.7145C13.6853 39.827 13.6091 39.9275 13.5155 40.0103L1.51546 50.8803C1.39512 50.9862 1.25106 51.0617 1.09544 51.1003C0.897663 51.1192 0.698737 51.0788 0.524003 50.9843C0.349268 50.8897 0.206669 50.7452 0.114396 50.5693C0.0221228 50.3933 -0.0156575 50.1938 0.005906 49.9963C0.0274695 49.7988 0.107391 49.6122 0.235459 49.4603L12.2355 38.6003C12.3277 38.5142 12.4363 38.4476 12.5548 38.4045C12.6733 38.3613 12.7993 38.3424 12.9253 38.3489C13.0513 38.3554 13.1746 38.3873 13.288 38.4425ZM46.5173 50.3196C46.302 50.193 46.0472 50.1516 45.8029 50.2034C45.5587 50.2552 45.3426 50.3965 45.1973 50.5996L39.4573 59.4496C39.3317 59.666 39.2919 59.9216 39.3456 60.166C39.3993 60.4104 39.5426 60.6257 39.7473 60.7696C39.8548 60.8416 39.9762 60.8903 40.1036 60.9126C40.231 60.935 40.3617 60.9306 40.4873 60.8996C40.7206 60.8363 40.9231 60.6907 41.0573 60.4896L46.7973 51.6196C46.9181 51.4063 46.9563 51.156 46.9047 50.9163C46.8531 50.6766 46.7152 50.4643 46.5173 50.3196ZM45.1268 69.3502C44.9115 69.3981 44.6865 69.3735 44.4867 69.2802C44.2616 69.1678 44.0872 68.9746 43.9982 68.7392C43.9092 68.5038 43.9123 68.2435 44.0067 68.0102L51.2667 52.7602C51.3826 52.5387 51.5772 52.3685 51.8123 52.2834C52.0474 52.1983 52.3059 52.2043 52.5367 52.3002C52.7565 52.4178 52.9245 52.6131 53.0077 52.8481C53.091 53.083 53.0835 53.3405 52.9867 53.5702L45.7667 68.8302C45.7032 68.9574 45.6132 69.0696 45.5028 69.1593C45.3925 69.249 45.2643 69.314 45.1268 69.3502Z" fill="#2779A7"/>
</svg>
