<svg width="105" height="71" viewBox="0 0 105 71" fill="none" xmlns="http://www.w3.org/2000/svg">
<mask id="mask0_41_20" style="mask-type:luminance" maskUnits="userSpaceOnUse" x="0" y="0" width="105" height="71">
<path fill-rule="evenodd" clip-rule="evenodd" d="M43.2135 33.7512L43.2149 33.7515C47.7605 34.8441 52.3109 35.938 56.803 37.2006C56.8567 37.0986 56.9382 37 57.0519 36.9092C62.7404 32.3744 68.4509 27.8684 74.161 23.3627L74.1626 23.3614C76.1554 21.789 78.1481 20.2166 80.1398 18.6431C80.923 18.0245 81.704 17.4024 82.4851 16.7802L82.4878 16.7781L82.4889 16.7772C85.2924 14.5441 88.0976 12.3096 91.0144 10.2282C93.5656 8.40846 96.1556 6.64446 98.7525 4.88577C95.5543 6.27835 92.3548 7.67465 89.1538 9.07465C72.2823 16.4666 55.6045 24.2276 39.3042 32.8072C40.6055 33.1243 41.9086 33.4375 43.2121 33.7509L43.2135 33.7512ZM61.0604 44.1255C60.1432 42.1839 59.2263 40.243 58.4239 38.2628C63.955 33.9356 69.4622 29.5792 74.9697 25.2225C77.0279 23.5944 79.0861 21.9663 81.1457 20.3396C81.9428 19.7098 82.7376 19.0763 83.5326 18.4426C86.4461 16.1202 89.3626 13.7955 92.4056 11.6469L92.5541 11.5421C86.0545 18.1077 79.6565 24.7758 73.2604 31.4419C70.4759 34.3439 67.6918 37.2456 64.8997 40.1383C64.8869 40.1507 64.8744 40.1636 64.8623 40.1771L64.8018 40.2398C64.5429 40.5081 64.491 40.8196 64.5679 41.0956C64.1662 43.371 63.9495 45.6686 63.7327 47.9665L63.7326 47.9682L63.7324 47.97C63.6789 48.5379 63.6252 49.1066 63.5688 49.6742C62.7971 47.8016 61.9286 45.9633 61.0604 44.1255ZM67.3369 40.3174C73.8937 43.8333 80.3354 47.5443 86.6618 51.4503C91.5781 40.4025 94.8979 28.785 98.2162 17.173C99.3518 13.199 100.487 9.2256 101.686 5.27591L101.634 5.31135C94.4387 12.3786 87.4291 19.6277 80.4192 26.8771L80.4184 26.8779C76.073 31.3718 71.7269 35.8664 67.3369 40.3174ZM104.544 2.3761C104.539 2.45407 104.524 2.536 104.497 2.62149L104.424 2.85597C104.433 3.07376 104.374 3.29533 104.228 3.48497C102.793 8.09941 101.458 12.7501 100.124 17.4015C96.6593 29.4768 93.1936 41.5564 87.9628 53.016V53.021C87.838 53.2926 87.6438 53.4359 87.431 53.481C87.1795 53.6623 86.8423 53.711 86.4962 53.4964C82.6412 51.1364 78.7486 48.8437 74.8185 46.6184C74.7726 46.6642 74.7206 46.7075 74.6621 46.7478C73.1215 47.8145 71.5574 48.8445 69.9932 49.8745C68.0642 51.1447 66.1351 52.4151 64.2504 53.754V53.759C63.6523 54.185 63.0718 53.7747 62.9073 53.222C62.8992 53.2063 62.8914 53.1902 62.8839 53.1736C62.4523 52.2116 62.0168 51.249 61.5808 50.2854L61.5752 50.2729L61.5742 50.2707C59.9076 46.5872 58.2336 42.8875 56.7422 39.1387C56.6988 39.1348 56.6544 39.1282 56.6089 39.1186C51.9612 38.0994 47.3443 36.8923 42.733 35.6868C40.6537 35.1431 38.5756 34.5998 36.4962 34.0741H36.4987C35.8078 33.9 35.6877 33.2113 35.9403 32.7213C36.0074 32.5558 36.1367 32.4058 36.3422 32.2951C41.1198 29.7229 45.9274 27.2207 50.765 24.7885C67.3458 16.4523 84.3544 9.05312 101.363 1.65408L103.269 0.824864C104.255 0.396123 105.129 1.59908 104.589 2.24896C104.578 2.29157 104.563 2.334 104.544 2.3761ZM66.3658 41.9671C68.5648 43.1426 70.7524 44.3385 72.9285 45.555C70.3179 47.1132 67.8001 48.8713 65.3179 50.6475C65.4301 49.7108 65.5326 48.7721 65.6351 47.8328L65.6353 47.8304L65.6355 47.8293L65.6356 47.8281C65.8491 45.8715 66.0629 43.9125 66.3658 41.9671ZM14.3277 56.7492C9.42839 58.6108 4.88438 61.706 2.42221 66.4602L2.42471 66.4727C1.88924 67.5086 0.330362 66.5929 0.863333 65.5569C4.19127 59.0987 10.9923 55.5381 17.7708 53.739C23.8186 52.1376 30.4995 51.512 36.5799 53.2636C38.764 53.8611 40.8158 54.8472 42.6394 56.1687C42.9237 55.9172 43.2102 55.6752 43.496 55.443C46.1595 53.2815 49.2588 51.7212 52.5815 50.869C53.76 50.5662 54.2605 52.3903 53.0819 52.6931C49.8049 53.518 46.7663 55.0981 44.2091 57.3072C44.1842 57.3289 44.1592 57.3509 44.1341 57.3729C44.2215 57.4511 44.3082 57.5301 44.3943 57.6099C46.6487 59.7593 48.6105 62.9596 47.8423 66.1975C47.2067 68.8749 44.4943 71.1844 41.6693 70.4087C38.8444 69.633 37.4231 66.4277 37.8435 63.7003C38.2087 61.3287 39.6081 59.2209 41.2912 57.4612C37.8727 55.0924 33.5799 54.1706 29.4335 54.0818C24.2744 54.0014 19.1473 54.9067 14.3277 56.7492ZM42.7856 58.6436C40.9526 60.5111 39.2349 62.9597 39.7051 65.5169C40.2506 68.4895 43.6061 69.8132 45.4427 67.0607C47.1392 64.5085 45.4252 61.3607 43.5885 59.4265C43.3294 59.1533 43.0615 58.8925 42.7856 58.6436Z" fill="white"/>
</mask>
<g mask="url(#mask0_41_20)">
<path d="M43.2149 33.7515L42.9761 34.7227L42.9859 34.725L43.2149 33.7515ZM43.2149 33.7515L43.4489 32.7793L43.4442 32.7782L43.2149 33.7515ZM56.803 37.2006L56.5324 38.1633L57.3111 38.3822L57.6879 37.6664L56.803 37.2006ZM82.4851 16.7802L81.863 15.9973L81.862 15.9981L82.4851 16.7802ZM82.4878 16.7781L83.1098 17.5611L83.119 17.5538L83.128 17.5463L82.4878 16.7781ZM82.4878 16.7781L81.862 15.9981L81.8549 16.0038L81.8477 16.0098L82.4878 16.7781ZM82.4889 16.7772L81.8659 15.995L81.863 15.9973L82.4889 16.7772ZM98.7525 4.88577L99.3133 5.71376L98.3533 3.96891L98.7525 4.88577ZM39.3042 32.8072L38.8384 31.9223L36.5 33.1531L39.0674 33.7787L39.3042 32.8072ZM43.2121 33.7509L43.4509 32.7798L43.4459 32.7786L43.2121 33.7509ZM58.4239 38.2628L57.8078 37.4752L57.214 37.9397L57.4971 38.6384L58.4239 38.2628ZM92.5541 11.5421L93.2647 12.2456L91.9773 10.7252L92.5541 11.5421ZM64.8997 40.1383L65.5935 40.8586L65.6066 40.8459L65.6193 40.8328L64.8997 40.1383ZM64.8623 40.1771L65.5818 40.8715L65.5935 40.8586L65.6066 40.8459L64.8623 40.1771ZM64.5679 41.0956L65.5527 41.2695L65.5921 41.046L65.5312 40.8274L64.5679 41.0956ZM63.7327 47.9665L62.7371 47.8726L62.737 47.8736L63.7327 47.9665ZM63.7323 47.9708L64.7279 48.0647L64.728 48.0637L63.7323 47.9708ZM63.5688 49.6742L62.6442 50.0552L64.5639 49.7731L63.5688 49.6742ZM86.6618 51.4503L86.1364 52.3012L87.1102 52.9024L87.5754 51.8569L86.6618 51.4503ZM67.3369 40.3174L66.625 39.6151L65.6862 40.5669L66.8643 41.1987L67.3369 40.3174ZM101.686 5.27591L102.643 5.56642L103.465 2.85988L101.125 4.44853L101.686 5.27591ZM101.634 5.31135L101.073 4.48398L100.998 4.53467L100.933 4.59791L101.634 5.31135ZM80.4192 26.8771L79.7003 26.182L79.694 26.1885L80.4192 26.8771ZM80.4184 26.8779L81.1341 27.5765L81.1435 27.5666L80.4184 26.8779ZM80.4184 26.8779L79.7022 26.18L79.699 26.1834L80.4184 26.8779ZM104.544 2.3761L103.63 1.97029L103.557 2.13499L103.546 2.31486L104.544 2.3761ZM104.424 2.85597L103.47 2.55669L103.418 2.72258L103.425 2.89629L104.424 2.85597ZM104.228 3.48497L103.436 2.87374L103.326 3.01618L103.273 3.18802L104.228 3.48497ZM87.9628 53.016L87.0531 52.6007L86.9628 52.7985V53.016H87.9628ZM87.9628 53.021L88.8715 53.4383L88.9628 53.2396V53.021H87.9628ZM87.431 53.481L87.2233 52.5029L87.0173 52.5466L86.8465 52.6697L87.431 53.481ZM86.4962 53.4964L87.0231 52.6465L87.0183 52.6436L86.4962 53.4964ZM74.8185 46.6184L75.3112 45.7482L74.6505 45.3741L74.1126 45.91L74.8185 46.6184ZM74.6621 46.7478L74.0942 45.9247L74.0928 45.9257L74.6621 46.7478ZM69.9932 49.8745L70.5077 50.732L70.5257 50.7212L70.5432 50.7097L69.9932 49.8745ZM69.9932 49.8745L69.4786 49.0171L69.4606 49.0279L69.4431 49.0394L69.9932 49.8745ZM64.2504 53.754L63.6713 52.9388L63.2504 53.2378V53.754H64.2504ZM64.2504 53.759L64.8305 54.5736L65.2504 54.2745V53.759H64.2504ZM62.9073 53.222L63.8657 52.9367L63.8385 52.8453L63.7946 52.7607L62.9073 53.222ZM61.5752 50.2729L62.4864 49.8609L62.4856 49.8591L61.5752 50.2729ZM61.5742 50.2707L60.6571 50.6694L60.6604 50.677L60.6638 50.6845L61.5742 50.2707ZM61.5742 50.2707L62.4911 49.8717L62.4882 49.8649L62.4851 49.8582L61.5742 50.2707ZM56.7422 39.1387L57.6714 38.7691L57.4441 38.1978L56.8318 38.1428L56.7422 39.1387ZM56.6089 39.1186L56.3947 40.0954L56.4025 40.0971L56.6089 39.1186ZM36.4962 34.0741V33.0741L36.2511 35.0436L36.4962 34.0741ZM36.4987 34.0741V35.0741L36.7431 33.1045L36.4987 34.0741ZM35.9403 32.7213L36.8292 33.1795L36.8499 33.1392L36.8669 33.0972L35.9403 32.7213ZM104.589 2.24896L103.82 1.61001L103.68 1.77883L103.623 1.99085L104.589 2.24896ZM72.9285 45.555L73.441 46.4137L74.9271 45.5267L73.4164 44.6822L72.9285 45.555ZM66.3658 41.9671L66.8372 41.0852L65.5945 40.4209L65.3777 41.8132L66.3658 41.9671ZM65.3179 50.6475L64.325 50.5284L64.055 52.7807L65.8998 51.4607L65.3179 50.6475ZM65.6351 47.8328L66.6292 47.9413L66.6296 47.937L65.6351 47.8328ZM65.6353 47.8304L64.6424 47.7113L64.6415 47.7188L64.6408 47.7262L65.6353 47.8304ZM65.6357 47.8276L66.6286 47.9467L66.6298 47.936L65.6357 47.8276ZM2.42221 66.4602L1.53423 66.0004L1.37271 66.3122L1.44168 66.6566L2.42221 66.4602ZM14.3277 56.7492L14.6829 57.6839L14.6848 57.6832L14.3277 56.7492ZM2.42471 66.4727L3.31305 66.9319L3.47412 66.6203L3.40524 66.2764L2.42471 66.4727ZM36.5799 53.2636L36.303 54.2246L36.316 54.2281L36.5799 53.2636ZM42.6394 56.1687L42.0527 56.9784L42.7017 57.4487L43.302 56.9177L42.6394 56.1687ZM53.0819 52.6931L53.326 53.6628L53.3307 53.6616L53.0819 52.6931ZM44.2091 57.3072L43.5554 56.5504L43.5509 56.5543L44.2091 57.3072ZM44.1341 57.3729L43.4735 56.6222L42.6269 57.3671L43.4677 58.1185L44.1341 57.3729ZM44.3943 57.6099L45.0844 56.8861L45.0745 56.877L44.3943 57.6099ZM41.2912 57.4612L42.0139 58.1524L42.8233 57.3062L41.8608 56.6393L41.2912 57.4612ZM29.4335 54.0818L29.455 53.082L29.4491 53.0819L29.4335 54.0818ZM42.7856 58.6436L43.4554 57.9011L42.7435 57.2589L42.0719 57.9431L42.7856 58.6436ZM45.4427 67.0607L46.2745 67.6158L46.2755 67.6143L45.4427 67.0607ZM43.453 32.7803L42.9748 34.7223L42.9761 34.7227L43.453 32.7803ZM57.0736 36.2379C52.5601 34.9693 47.9913 33.8712 43.4489 32.7793L42.9814 34.7239C47.5301 35.8173 52.0617 36.9067 56.5324 38.1633L57.0736 36.2379ZM56.4286 36.1273C56.2203 36.2935 56.0436 36.4964 55.9181 36.7348L57.6879 37.6664C57.6793 37.6828 57.6716 37.6928 57.6679 37.6971C57.6644 37.7013 57.6659 37.6986 57.6759 37.6907L56.4286 36.1273ZM73.542 22.5774C67.8323 27.0828 62.1193 31.5906 56.4286 36.1273L57.6759 37.6907C63.3621 33.1576 69.07 28.6537 74.7804 24.1478L73.542 22.5774ZM73.5436 22.5761L73.542 22.5774L74.7804 24.1478L74.7817 24.1468L73.5436 22.5761ZM79.52 17.8583C77.5286 19.4317 75.5364 21.0037 73.5436 22.5761L74.7817 24.1468C76.7744 22.5744 78.7677 21.0015 80.7597 19.4277L79.52 17.8583ZM81.862 15.9981C81.0807 16.6204 80.3013 17.2412 79.52 17.8583L80.7597 19.4277C81.5448 18.8076 82.3273 18.1844 83.1081 17.5624L81.862 15.9981ZM81.8659 15.995L81.863 15.9973L83.1071 17.5632L83.1098 17.5611L81.8659 15.995ZM81.863 15.9973L81.862 15.9981L83.1137 17.558L83.1147 17.5572L81.863 15.9973ZM90.4337 9.41404C87.4918 11.5135 84.6659 13.7646 81.8659 15.995L83.1119 17.5594C85.9189 15.3235 88.7036 13.1057 91.5953 11.0422L90.4337 9.41404ZM98.1918 4.05777C95.5945 5.81675 92.9956 7.58667 90.4337 9.41404L91.5953 11.0422C94.1357 9.23015 96.7168 7.47217 99.3133 5.71376L98.1918 4.05777ZM89.5546 9.99085C92.755 8.59107 95.954 7.19499 99.1518 5.80262L98.3533 3.96891C95.1546 5.36172 91.9545 6.75823 88.7531 8.15845L89.5546 9.99085ZM39.7699 33.6921C56.042 25.1274 72.6961 17.3771 89.5546 9.99085L88.7531 8.15845C71.8685 15.5561 55.1669 23.3279 38.8384 31.9223L39.7699 33.6921ZM43.4459 32.7786C42.1421 32.4652 40.8404 32.1523 39.5409 31.8356L39.0674 33.7787C40.3705 34.0963 41.6752 34.4099 42.9784 34.7232L43.4459 32.7786ZM43.4509 32.7798L42.9734 34.7219L42.9748 34.7223L43.4509 32.7798ZM43.453 32.7803L43.4509 32.7798L42.9748 34.7223L43.453 32.7803ZM57.4971 38.6384C58.3119 40.649 59.2411 42.6154 60.1562 44.5526L61.9646 43.6983C61.0454 41.7525 60.1408 39.8369 59.3507 37.8873L57.4971 38.6384ZM74.3493 24.4382C68.8415 28.7951 63.3364 33.1499 57.8078 37.4752L59.0401 39.0504C64.5737 34.7212 70.083 30.3632 75.5901 26.0068L74.3493 24.4382ZM80.5259 19.5548C78.466 21.1818 76.4074 22.8102 74.3493 24.4382L75.5901 26.0068C77.6483 24.3787 79.7063 22.7507 81.7655 21.1243L80.5259 19.5548ZM82.9093 17.6606C82.114 18.2946 81.321 18.9266 80.5259 19.5548L81.7655 21.1243C82.5646 20.493 83.3612 19.8581 84.1559 19.2246L82.9093 17.6606ZM91.8288 10.83C88.758 12.9982 85.819 15.3413 82.9093 17.6606L84.1559 19.2246C87.0733 16.8992 89.9671 14.5928 92.9824 12.4638L91.8288 10.83ZM91.9773 10.7252L91.8288 10.83L92.9824 12.4638L93.1309 12.359L91.9773 10.7252ZM73.982 32.1342C80.379 25.4672 86.7716 18.8048 93.2647 12.2456L91.8434 10.8386C85.3374 17.4107 78.9341 24.0844 72.5388 30.7496L73.982 32.1342ZM65.6193 40.8328C68.4125 37.9388 71.1977 35.0361 73.982 32.1342L72.5388 30.7496C69.7542 33.6518 66.9711 36.5524 64.1802 39.4438L65.6193 40.8328ZM65.6066 40.8459C65.6024 40.8506 65.598 40.8542 65.5935 40.8586L64.2061 39.418C64.1759 39.4471 64.1466 39.4774 64.1182 39.5091L65.6066 40.8459ZM65.5213 40.9343L65.5818 40.8715L64.1428 39.4826L64.0823 39.5453L65.5213 40.9343ZM65.5312 40.8274C65.5348 40.8402 65.5387 40.868 65.5303 40.9025C65.5263 40.9187 65.5209 40.9309 65.5168 40.9381C65.5128 40.9451 65.5125 40.9435 65.5213 40.9343L64.0823 39.5453C63.5688 40.0774 63.4359 40.7584 63.6046 41.3639L65.5312 40.8274ZM64.7283 48.0604C64.9457 45.7558 65.1591 43.4984 65.5527 41.2695L63.5831 40.9218C63.1732 43.2435 62.9533 45.5814 62.7371 47.8726L64.7283 48.0604ZM64.7283 48.0604L64.7284 48.0594L62.737 47.8736L64.7283 48.0604ZM64.7283 48.0604L62.737 47.8736L62.7369 47.8753L64.7283 48.0604ZM64.7282 48.062L62.7369 47.8753L62.7367 47.877L64.7282 48.062ZM64.728 48.0637L64.7282 48.062L62.7367 47.877L64.728 48.0637ZM64.5639 49.7731C64.6206 49.2026 64.6744 48.6322 64.7279 48.0647L62.7367 47.877C62.6831 48.4453 62.6298 49.0106 62.5737 49.5753L64.5639 49.7731ZM60.1562 44.5526C61.0263 46.3943 61.8837 48.2099 62.6442 50.0552L64.4934 49.2932C63.7104 47.3934 62.831 45.5323 61.9646 43.6983L60.1562 44.5526ZM87.1871 50.5995C80.8434 46.6827 74.3842 42.9616 67.8095 39.4361L66.8643 41.1987C73.4033 44.705 79.8273 48.4059 86.1364 52.3012L87.1871 50.5995ZM97.2546 16.8983C93.9332 28.5216 90.6312 40.0709 85.7482 51.0438L87.5754 51.8569C92.5251 40.7342 95.8627 29.0484 99.1777 17.4478L97.2546 16.8983ZM100.73 4.98539C99.5275 8.94426 98.3899 12.9256 97.2546 16.8983L99.1777 17.4478C100.314 13.4724 101.447 9.50695 102.643 5.56642L100.73 4.98539ZM102.196 6.13873L102.248 6.10328L101.125 4.44853L101.073 4.48398L102.196 6.13873ZM81.1381 27.5723C88.1495 20.3213 95.1501 13.0815 102.335 6.02479L100.933 4.59791C93.7272 11.6757 86.7087 18.9341 79.7003 26.182L81.1381 27.5723ZM81.1435 27.5666L81.1443 27.5658L79.694 26.1885L79.6933 26.1893L81.1435 27.5666ZM68.0489 41.0196C72.443 36.5645 76.7919 32.0669 81.1368 27.5736L79.699 26.1834C75.353 30.6779 71.0109 35.1683 66.625 39.6151L68.0489 41.0196ZM105.451 2.92118C105.501 2.76336 105.532 2.60143 105.542 2.43733L103.546 2.31486C103.546 2.30671 103.547 2.30863 103.543 2.32179L105.451 2.92118ZM105.378 3.15525L105.452 2.92077L103.543 2.32179L103.47 2.55669L105.378 3.15525ZM105.019 4.09619C105.324 3.70144 105.44 3.243 105.423 2.81565L103.425 2.89629C103.425 2.90211 103.424 2.90074 103.426 2.89391C103.427 2.89054 103.428 2.88664 103.431 2.88263C103.433 2.87856 103.435 2.87554 103.436 2.87374L105.019 4.09619ZM101.085 17.6773C102.42 13.0241 103.751 8.38404 105.182 3.78191L103.273 3.18802C101.834 7.81477 100.497 12.4761 99.1625 17.1257L101.085 17.6773ZM88.8725 53.4312C94.1394 41.8925 97.624 29.7406 101.085 17.6773L99.1625 17.1257C95.6946 29.213 92.2478 41.2202 87.0531 52.6007L88.8725 53.4312ZM88.9628 53.021V53.016H86.9628V53.021H88.9628ZM87.6388 54.4592C88.1875 54.3427 88.6267 53.9713 88.8715 53.4383L87.054 52.6037C87.0467 52.6196 87.0536 52.5978 87.0907 52.5669C87.1288 52.5352 87.1764 52.5128 87.2233 52.5029L87.6388 54.4592ZM85.9693 54.3463C86.6807 54.7874 87.4561 54.6955 88.0156 54.2924L86.8465 52.6697C86.8584 52.6611 86.8937 52.6412 86.9487 52.6385C86.9751 52.6371 86.9977 52.6403 87.014 52.6447C87.0299 52.649 87.033 52.6526 87.0231 52.6465L85.9693 54.3463ZM74.3258 47.4886C78.246 49.7083 82.1288 51.9952 85.9741 54.3493L87.0183 52.6436C83.1536 50.2776 79.2513 47.9791 75.3112 45.7482L74.3258 47.4886ZM75.23 47.5709C75.3361 47.4977 75.4345 47.4162 75.5244 47.3267L74.1126 45.91C74.1106 45.9121 74.105 45.9173 74.0942 45.9247L75.23 47.5709ZM70.5432 50.7097C72.1057 49.6807 73.6796 48.6444 75.2313 47.57L74.0928 45.9257C72.5634 46.9846 71.0089 48.0084 69.4431 49.0394L70.5432 50.7097ZM64.8296 54.5692C66.6975 53.2423 68.6117 51.9815 70.5432 50.7097L69.4431 49.0394C67.5166 50.308 65.5728 51.5879 63.6713 52.9388L64.8296 54.5692ZM65.2504 53.759V53.754H63.2504V53.759H65.2504ZM61.9489 53.5073C62.0975 54.0065 62.4456 54.4942 62.9744 54.7546C63.5584 55.0422 64.2444 54.9909 64.8305 54.5736L63.6703 52.9445C63.6476 52.9607 63.6654 52.9417 63.721 52.9366C63.7765 52.9316 63.826 52.9446 63.8581 52.9604C63.8861 52.9742 63.892 52.9852 63.8858 52.9774C63.8799 52.9699 63.8713 52.9552 63.8657 52.9367L61.9489 53.5073ZM61.9715 53.583C61.9866 53.6168 62.0029 53.6502 62.02 53.6833L63.7946 52.7607C63.7955 52.7625 63.796 52.7637 63.7963 52.7642L61.9715 53.583ZM60.6697 50.6974C61.1059 51.6613 61.5407 52.6226 61.9715 53.583L63.7963 52.7642C63.364 51.8005 62.9278 50.8366 62.4919 49.8732L60.6697 50.6974ZM60.6638 50.6845L60.6697 50.6974L62.4919 49.8732L62.4864 49.8609L60.6638 50.6845ZM60.6638 50.6845L60.6648 50.6867L62.4856 49.8591L62.4845 49.8569L60.6638 50.6845ZM55.813 39.5084C57.3144 43.2822 58.998 47.0027 60.663 50.6826L62.4851 49.8582C60.8169 46.1711 59.1527 42.4927 57.6714 38.7691L55.813 39.5084ZM56.4025 40.0971C56.4856 40.1146 56.569 40.1272 56.6526 40.1347L56.8318 38.1428C56.8286 38.1425 56.8232 38.1418 56.8154 38.1402L56.4025 40.0971ZM42.4801 36.6542C47.0882 37.859 51.7243 39.0712 56.3947 40.0954L56.8231 38.1418C52.1981 37.1276 47.6005 35.9257 42.986 34.7193L42.4801 36.6542ZM36.2511 35.0436C38.3259 35.5682 40.4001 36.1105 42.4801 36.6542L42.986 34.7193C40.9073 34.1758 38.8252 33.6315 36.7413 33.1046L36.2511 35.0436ZM36.4987 33.0741H36.4962V35.0741H36.4987V33.0741ZM35.0514 32.2632C34.8161 32.7197 34.7377 33.2928 34.9167 33.8316C35.11 34.4131 35.58 34.8738 36.2542 35.0438L36.7431 33.1045C36.7295 33.101 36.7275 33.099 36.7336 33.1022C36.7399 33.1055 36.7509 33.1125 36.7638 33.1244C36.7916 33.1501 36.8077 33.1799 36.8147 33.2008C36.8206 33.2188 36.818 33.2235 36.819 33.2133C36.82 33.2031 36.8236 33.1902 36.8292 33.1795L35.0514 32.2632ZM35.8683 31.4146C35.475 31.6263 35.1754 31.9466 35.0136 32.3455L36.8669 33.0972C36.8553 33.1258 36.8396 33.1492 36.8246 33.1655C36.8099 33.1814 36.8033 33.1826 36.8162 33.1757L35.8683 31.4146ZM50.3158 23.8951C45.4698 26.3314 40.654 28.8379 35.8683 31.4146L36.8162 33.1757C41.5855 30.6079 46.3849 28.1099 51.2141 25.682L50.3158 23.8951ZM100.964 0.737093C83.9597 8.13429 66.9255 15.5443 50.3158 23.8951L51.2141 25.682C67.766 17.3603 84.7491 9.97196 101.762 2.57107L100.964 0.737093ZM102.87 -0.0921733L100.964 0.737093L101.762 2.57107L103.668 1.74184L102.87 -0.0921733ZM105.358 2.88791C106.047 2.05857 105.726 1.03897 105.269 0.491336C104.77 -0.105078 103.85 -0.518526 102.87 -0.0921733L103.668 1.74184C103.686 1.73381 103.693 1.73439 103.689 1.73459C103.688 1.73465 103.687 1.73463 103.685 1.73445C103.684 1.73429 103.683 1.73408 103.684 1.73419C103.687 1.73512 103.709 1.7442 103.734 1.77353C103.76 1.80515 103.757 1.8218 103.755 1.79999C103.754 1.78609 103.753 1.7575 103.763 1.71928C103.774 1.67916 103.794 1.64068 103.82 1.61001L105.358 2.88791ZM105.458 2.78191C105.498 2.69226 105.53 2.60046 105.555 2.50706L103.623 1.99085C103.625 1.98268 103.628 1.97574 103.63 1.97029L105.458 2.78191ZM73.4164 44.6822C71.2348 43.4626 69.0418 42.2636 66.8372 41.0852L65.8944 42.849C68.0879 44.0215 70.2699 45.2145 72.4405 46.4279L73.4164 44.6822ZM65.8998 51.4607C68.3789 49.6868 70.8684 47.9492 73.441 46.4137L72.4159 44.6963C69.7675 46.2771 67.2213 48.0558 64.736 49.8342L65.8998 51.4607ZM64.641 47.7244C64.5384 48.6645 64.4365 49.598 64.325 50.5284L66.3108 50.7665C66.4238 49.8237 66.5268 48.8797 66.6292 47.9413L64.641 47.7244ZM64.6408 47.7262L64.6405 47.7286L66.6296 47.937L66.6299 47.9346L64.6408 47.7262ZM64.6426 47.7101L66.6282 47.9496L66.6283 47.9484L64.6426 47.7101ZM64.6427 47.709L66.6283 47.9484L66.6286 47.9467L64.6427 47.709ZM65.3777 41.8132C65.0707 43.785 64.8545 45.7661 64.6415 47.7188L66.6298 47.936C66.8437 45.9757 67.0551 44.0399 67.3539 42.121L65.3777 41.8132ZM3.31019 66.9201C5.6194 62.4613 9.91714 59.4948 14.6829 57.6839L13.9725 55.8144C8.93965 57.7268 4.14937 60.9508 1.53423 66.0004L3.31019 66.9201ZM3.40524 66.2764L3.40274 66.2639L1.44168 66.6566L1.44418 66.6691L3.40524 66.2764ZM-0.0255874 65.0989C-0.592573 66.201 0.00678331 67.2255 0.737129 67.6542C1.10682 67.8712 1.58506 67.9934 2.08047 67.892C2.6074 67.7841 3.04888 67.443 3.31305 66.9319L1.53637 66.0135C1.52961 66.0266 1.5364 66.0085 1.56875 65.9834C1.60147 65.958 1.64109 65.9405 1.67931 65.9327C1.74849 65.9185 1.76992 65.9413 1.74958 65.9294C1.73089 65.9184 1.73596 65.9112 1.74518 65.9362C1.75096 65.9518 1.75501 65.9733 1.75364 65.9961C1.75223 66.0197 1.74615 66.0269 1.75255 66.0144L-0.0255874 65.0989ZM17.5148 52.7723C10.6228 54.6015 3.49192 58.2728 -0.0255874 65.0989L1.75255 66.0144C4.89092 59.9241 11.3623 56.4745 18.0273 54.7055L17.5148 52.7723ZM36.8567 52.3027C30.5378 50.4824 23.6583 51.1456 17.5148 52.7723L18.0273 54.7055C23.9795 53.1294 30.4612 52.5418 36.303 54.2246L36.8567 52.3027ZM43.2262 55.3589C41.3054 53.9671 39.1443 52.9284 36.8437 52.299L36.316 54.2281C38.3837 54.7938 40.3262 55.7274 42.0527 56.9784L43.2262 55.3589ZM42.8658 54.6665C42.5701 54.9068 42.2724 55.1583 41.9769 55.4197L43.302 56.9177C43.575 56.6762 43.8508 56.4432 44.1266 56.2191L42.8658 54.6665ZM52.333 49.9003C48.8707 50.7883 45.6413 52.4142 42.8658 54.6665L44.1266 56.2191C46.6782 54.1484 49.6468 52.654 52.8299 51.8376L52.333 49.9003ZM53.3307 53.6616C53.9009 53.5152 54.3351 53.1553 54.5679 52.671C54.7882 52.2129 54.7963 51.7135 54.68 51.2894C54.5635 50.8647 54.3026 50.4431 53.8881 50.1589C53.4518 49.8598 52.9023 49.7541 52.333 49.9003L52.8299 51.8376C52.8494 51.8326 52.8435 51.8376 52.8191 51.8333C52.7952 51.8292 52.773 51.8194 52.7571 51.8085C52.7428 51.7986 52.7391 51.7919 52.7412 51.795C52.7435 51.7984 52.748 51.8066 52.7512 51.8185C52.7527 51.824 52.7536 51.8289 52.754 51.8328C52.7544 51.8368 52.7543 51.8388 52.7543 51.8386C52.7543 51.8385 52.7545 51.8354 52.756 51.8297C52.7574 51.8239 52.7602 51.8152 52.7654 51.8045C52.7767 51.7811 52.7951 51.7565 52.8184 51.7377C52.8417 51.7189 52.8527 51.7195 52.8331 51.7245L53.3307 53.6616ZM44.8628 58.0639C47.302 55.9568 50.2003 54.4496 53.326 53.6628L52.8378 51.7233C49.4095 52.5863 46.2307 54.2394 43.5554 56.5504L44.8628 58.0639ZM44.7947 58.1237C44.8189 58.1024 44.8431 58.0811 44.8673 58.06L43.5509 56.5543C43.5252 56.5768 43.4994 56.5994 43.4735 56.6222L44.7947 58.1237ZM45.0745 56.877C44.9839 56.7928 44.8926 56.7096 44.8005 56.6274L43.4677 58.1185C43.5504 58.1925 43.6325 58.2673 43.714 58.3429L45.0745 56.877ZM48.8153 66.4285C49.7096 62.6592 47.419 59.112 45.0844 56.8861L43.7042 58.3337C45.8785 60.4067 47.5114 63.2603 46.8693 65.9667L48.8153 66.4285ZM41.4046 71.373C43.1656 71.8566 44.8604 71.3642 46.1685 70.4042C47.4668 69.4514 48.4416 68.0025 48.8153 66.4285L46.8693 65.9667C46.6074 67.07 45.9083 68.1144 44.9852 68.7918C44.0719 69.462 42.998 69.7365 41.9341 69.4444L41.4046 71.373ZM36.8551 63.548C36.3825 66.6142 37.9457 70.4233 41.4046 71.373L41.9341 69.4444C39.743 68.8428 38.4637 66.2412 38.8318 63.8526L36.8551 63.548ZM40.5686 56.77C38.8166 58.6017 37.2645 60.8898 36.8551 63.548L38.8318 63.8526C39.1529 61.7676 40.3996 59.8402 42.0139 58.1524L40.5686 56.77ZM29.4121 55.0816C33.4432 55.1679 37.5201 56.0647 40.7217 58.2832L41.8608 56.6393C38.2253 54.1201 33.7166 53.1733 29.455 53.082L29.4121 55.0816ZM14.6848 57.6832C19.3855 55.8863 24.3861 55.0033 29.418 55.0817L29.4491 53.0819C24.1627 52.9996 18.9092 53.9272 13.9706 55.8151L14.6848 57.6832ZM40.6887 65.3364C40.5055 64.3399 40.7373 63.3158 41.2708 62.2793C41.8067 61.2381 42.6192 60.2407 43.4993 59.3441L42.0719 57.9431C41.1191 58.9139 40.1562 60.0747 39.4925 61.364C38.8265 62.6579 38.4346 64.137 38.7216 65.6977L40.6887 65.3364ZM44.6109 66.5057C43.9225 67.5373 43.0745 67.6977 42.3905 67.482C41.6418 67.2459 40.9014 66.4957 40.6887 65.3364L38.7216 65.6977C39.0544 67.511 40.2644 68.9086 41.789 69.3894C43.3781 69.8906 45.1262 69.3366 46.2745 67.6158L44.6109 66.5057ZM42.863 60.1147C43.7147 61.0117 44.505 62.1593 44.8912 63.326C45.2712 64.4744 45.2405 65.5584 44.6099 66.5072L46.2755 67.6143C47.3413 66.0108 47.3019 64.2448 46.7899 62.6977C46.284 61.169 45.2985 59.7751 44.3137 58.7379L42.863 60.1147ZM42.1158 59.3861C42.3727 59.6178 42.6219 59.8606 42.863 60.1147L44.3137 58.7379C44.0364 58.4456 43.7503 58.1671 43.4554 57.9011L42.1158 59.3861Z" fill="#2779A7"/>
</g>
</svg>
