<svg xmlns:xlink="http://www.w3.org/1999/xlink" xmlns="http://www.w3.org/2000/svg" style="width:100%;height:100%" viewBox="0 0 97 54" preserveAspectRatio="none" width="97" height="54"><defs><svg width="97" height="54" viewBox="-2 -2 97 54" fill="none" id="svg1915579054_664">
<path d="M2.89238 16.7196C2.89238 16.7196 10.8004 9.28005 20.8716 9.93961C31.1082 10.61 43.515 19.3613 40.0381 28.9929C38.1678 34.174 34.4563 37.0722 29.0955 35.7616C23.7526 34.4553 21.1721 30.0082 21.3632 24.5213C21.7722 12.774 38.2206 7.60298 49.6777 10.3239C61.1579 13.0504 73.8091 25.2171 68.812 35.8825C66.4748 40.8708 62.2349 43.8616 56.9075 42.4209C51.6856 41.0088 48.8992 36.5732 49.1752 31.1807C49.7642 19.6756 65.7626 13.0729 76.6883 16.7914C83.822 19.2193 87.9339 23.8387 89.5103 31.1959" stroke="#FFF8EF" stroke-width="3px" stroke-linecap="round" fill="none"></path>
</svg></defs><use href="#svg1915579054_664"></use></svg>