<svg width="76" height="66" viewBox="0 0 76 66" fill="none" xmlns="http://www.w3.org/2000/svg">
<g clip-path="url(#clip0_40_15)">
<path d="M1.83086 65.9966C14.5708 66.1885 28.1309 58.2281 34.0871 46.7868L34.2906 46.3859C42.5526 45.193 50.8122 40.6683 56.7562 35.8013C61.874 31.6115 66.211 26.2838 69.24 20.3633C72.4002 14.1825 73.6199 7.74989 73.7265 0.851609C73.7449 -0.294845 72.0569 -0.272841 71.9809 0.851609C71.3313 10.484 66.4942 20.2717 60.202 27.3814C53.8192 34.5938 45.3586 39.9533 35.9675 42.0042C37.1382 37.7007 36.9972 33.1393 35.004 28.9678C32.4801 23.6878 26.9761 20.4978 21.1939 21.5269C15.8788 22.4717 12.0738 27.0881 12.4085 32.5942C12.7566 38.3583 16.6633 43.1225 21.8743 45.1795C24.3651 46.1634 26.9835 46.6303 29.646 46.6829C23.7645 56.2469 12.6929 61.2605 1.82964 62.1515C-0.572965 62.3495 -0.64652 65.9563 1.82964 65.9929L1.83086 65.9966ZM19.7131 39.6135C16.5383 36.839 14.5365 31.2351 17.5275 27.6063C20.9512 23.4544 27.5351 24.8856 30.4526 28.798C33.4362 32.7995 33.4191 38.1505 31.6784 42.6666C27.4346 43.0186 22.9383 42.4344 19.7144 39.6147L19.7131 39.6135ZM65.592 33.0122C69.7757 28.5523 72.9616 23.1121 74.5184 17.1513C74.766 16.198 76.2125 16.6037 75.9734 17.5571C74.4166 23.799 71.4649 29.5826 67.2297 34.3933C63.1844 38.9914 57.4782 43.323 51.4533 44.7261C50.5548 44.9339 49.9149 43.6077 50.8036 43.1665C53.5213 41.8172 56.2206 40.5632 58.7592 38.8704C61.266 37.1996 63.5252 35.2147 65.592 33.0122ZM10.9522 55.5563C12.8596 55.1811 14.7326 54.9415 16.5383 54.1629C18.2973 53.4015 19.9497 52.3418 21.2908 50.9583C21.9993 50.2249 23.0314 51.3103 22.3903 52.0705C21.0015 53.7144 19.3135 55.1175 17.3596 56.0183C15.3848 56.9276 13.128 57.5669 10.951 57.232C10.1137 57.1024 10.1493 55.714 10.951 55.5575L10.9522 55.5563Z" fill="#2779A7"/>
</g>
<defs>
<clipPath id="clip0_40_15">
<rect width="76" height="66" fill="white"/>
</clipPath>
</defs>
</svg>
