<svg width="800" height="290" viewBox="0 0 800 290" fill="none" xmlns="http://www.w3.org/2000/svg">
<path d="M704.524 194.781C583.107 197.392 469.522 249.614 348.105 256.142C312.855 257.448 277.604 253.531 250.188 237.864C299.799 228.728 346.799 211.755 382.05 179.114C419.913 145.171 423.828 82.5043 400.328 38.1151C378.133 -3.66302 321.994 -4.96857 282.827 5.47595C190.129 27.6684 127.464 138.641 179.685 216.973C122.24 220.89 64.7951 216.973 8.65581 219.586C-3.09427 220.89 -3.09427 237.862 9.96138 237.862C67.4062 241.779 136.601 247.001 204.491 243.085C208.407 245.698 212.324 249.615 216.241 252.224C354.631 348.835 556.993 227.418 705.828 223.501C722.8 222.196 722.8 193.475 704.524 194.781ZM191.435 163.445C177.074 109.919 224.074 64.2242 267.158 42.0275C310.241 19.8329 371.603 19.8329 385.964 75.9722C402.937 141.25 346.797 180.415 293.269 197.39C268.463 205.223 244.963 210.445 220.157 213.057C205.798 200.001 196.659 184.334 191.435 163.445Z" fill="#2779A7"/>
<path d="M793.301 196.084C775.025 184.334 758.053 172.584 741.08 160.836C726.719 150.391 712.358 138.641 695.386 134.725C682.33 130.808 669.274 150.391 681.024 159.528C695.386 169.973 711.052 179.112 725.416 188.251C735.86 194.781 746.305 202.612 755.442 209.14C744.997 214.362 734.552 218.279 724.108 223.501C716.275 227.418 707.136 231.334 699.302 235.251C696.691 236.557 694.08 239.168 692.772 241.779C688.856 247.001 691.469 244.392 692.772 243.084C687.552 247.001 687.552 260.057 696.691 258.751C699.302 260.057 701.911 260.057 705.828 260.057C714.967 257.446 725.414 253.529 734.55 249.612C754.136 241.777 773.717 233.943 791.997 223.501C802.44 215.67 802.44 201.306 793.301 196.084Z" fill="#2779A7"/>
</svg>
